<?xml version="1.0" encoding="UTF-8" standalone="no"?>
<svg width="240" height="60" viewBox="0 0 240 60" xmlns="http://www.w3.org/2000/svg">
  <!-- Logo Icon -->
  <g transform="translate(0, 10)">
    <rect x="2" y="2" width="36" height="36" rx="4" fill="#3367D6" />
    
    <!-- Detailed Crane -->
    <g transform="translate(5, 5) scale(0.7)">
      <!-- Vertical mast -->
      <rect x="32" y="22" width="6" height="52" fill="#8AB4F8" />
      
      <!-- Diagonal supports for mast -->
      <polygon points="30,50 27,58 32,58 35,50" fill="#FFFFFF" />
      <polygon points="40,50 43,58 38,58 35,50" fill="#FFFFFF" />
      
      <!-- Operator cabin -->
      <rect x="29" y="18" width="12" height="7" fill="#FFFFFF" />
      
      <!-- Main jib (longer arm) with lattice structure -->
      <rect x="38" y="16" width="32" height="3" fill="#8AB4F8" />
      <line x1="40" y1="16" x2="40" y2="19" stroke="#FFFFFF" stroke-width="1" />
      <line x1="45" y1="16" x2="45" y2="19" stroke="#FFFFFF" stroke-width="1" />
      <line x1="50" y1="16" x2="50" y2="19" stroke="#FFFFFF" stroke-width="1" />
      <line x1="55" y1="16" x2="55" y2="19" stroke="#FFFFFF" stroke-width="1" />
      <line x1="60" y1="16" x2="60" y2="19" stroke="#FFFFFF" stroke-width="1" />
      <line x1="65" y1="16" x2="65" y2="19" stroke="#FFFFFF" stroke-width="1" />
      
      <!-- Counter jib (shorter arm) with lattice -->
      <rect x="0" y="16" width="29" height="3" fill="#8AB4F8" />
      <line x1="5" y1="16" x2="5" y2="19" stroke="#FFFFFF" stroke-width="1" />
      <line x1="10" y1="16" x2="10" y2="19" stroke="#FFFFFF" stroke-width="1" />
      <line x1="15" y1="16" x2="15" y2="19" stroke="#FFFFFF" stroke-width="1" />
      <line x1="20" y1="16" x2="20" y2="19" stroke="#FFFFFF" stroke-width="1" />
      <line x1="25" y1="16" x2="25" y2="19" stroke="#FFFFFF" stroke-width="1" />
      
      <!-- Counterweight on counter jib -->
      <rect x="2" y="11" width="12" height="5" fill="#FFFFFF" />
      <rect x="4" y="8" width="8" height="3" fill="#FFFFFF" />
      
      <!-- Trolley on main jib -->
      <rect x="55" y="14" width="4" height="6" fill="#FFFFFF" />
      
      <!-- Hook/cable -->
      <line x1="57" y1="20" x2="57" y2="30" stroke="#FFFFFF" stroke-width="1" />
      <path d="M55 30 L59 30 L57 34 Z" fill="#FFFFFF" />
      
      <!-- Base/foundation -->
      <rect x="28" y="74" width="14" height="4" fill="#FFFFFF" />
      <rect x="24" y="78" width="22" height="3" fill="#FFFFFF" />
    </g>
  </g>
  
  <!-- Text -->
  <g transform="translate(45, 32)">
    <text font-family="Arial, sans-serif" font-size="26" font-weight="600">
      <tspan fill="#4285F4">gc</tspan>
      <tspan fill="#4285F4">Panel</tspan>
    </text>
  </g>
</svg>